<?xml version="1.0" encoding="UTF-8" standalone="no"?>
<!-- Generator: Adobe Illustrator 16.0.0, SVG Export Plug-In . SVG Version: 6.00 Build 0)  -->

<svg
   xmlns:dc="http://purl.org/dc/elements/1.1/"
   xmlns:cc="http://creativecommons.org/ns#"
   xmlns:rdf="http://www.w3.org/1999/02/22-rdf-syntax-ns#"
   xmlns:svg="http://www.w3.org/2000/svg"
   xmlns="http://www.w3.org/2000/svg"
   xmlns:sodipodi="http://sodipodi.sourceforge.net/DTD/sodipodi-0.dtd"
   xmlns:inkscape="http://www.inkscape.org/namespaces/inkscape"
   version="1.1"
   id="Capa_1"
   x="0px"
   y="0px"
   width="128"
   height="128"
   viewBox="0 0 128 128"
   xml:space="preserve"
   sodipodi:docname="back.svg"
   inkscape:version="0.92.1 r15371"><metadata
     id="metadata44"><rdf:RDF><cc:Work
         rdf:about=""><dc:format>image/svg+xml</dc:format><dc:type
           rdf:resource="http://purl.org/dc/dcmitype/StillImage" /><dc:title /></cc:Work></rdf:RDF></metadata><defs
     id="defs42" /><sodipodi:namedview
     pagecolor="#ffffff"
     bordercolor="#666666"
     borderopacity="1"
     objecttolerance="10"
     gridtolerance="10"
     guidetolerance="10"
     inkscape:pageopacity="0"
     inkscape:pageshadow="2"
     inkscape:window-width="1920"
     inkscape:window-height="1024"
     id="namedview40"
     showgrid="false"
     inkscape:zoom="1.6854538"
     inkscape:cx="72.838842"
     inkscape:cy="86.024248"
     inkscape:window-x="0"
     inkscape:window-y="0"
     inkscape:window-maximized="1"
     inkscape:current-layer="Capa_1" /><g
     id="g7"
     style="fill:#e4e4e4;fill-opacity:1"
     transform="matrix(0.1615992,0,0,0.16159963,-0.05928515,3.46997e-6)"><g
       id="_x37__34_"
       style="fill:#e4e4e4;fill-opacity:1"><g
         id="g4"
         style="fill:#e4e4e4;fill-opacity:1"><path
           d="M 317.896,396.024 622.645,119.557 c 27.36,-27.36 27.36,-71.677 0,-99.037 -27.36,-27.36 -71.677,-27.36 -99.036,0 L 169.11,342.161 c -14.783,14.783 -21.302,34.538 -20.084,53.897 -1.218,19.359 5.301,39.114 20.084,53.897 l 354.531,321.606 c 27.36,27.36 71.677,27.36 99.037,0 27.36,-27.36 27.36,-71.677 0,-99.036 z"
           id="path2"
           style="fill:#e4e4e4;fill-opacity:1"
           inkscape:connector-curvature="0" /></g></g></g><g
     id="g9"
     transform="translate(0,-664.08197)" /><g
     id="g11"
     transform="translate(0,-664.08197)" /><g
     id="g13"
     transform="translate(0,-664.08197)" /><g
     id="g15"
     transform="translate(0,-664.08197)" /><g
     id="g17"
     transform="translate(0,-664.08197)" /><g
     id="g19"
     transform="translate(0,-664.08197)" /><g
     id="g21"
     transform="translate(0,-664.08197)" /><g
     id="g23"
     transform="translate(0,-664.08197)" /><g
     id="g25"
     transform="translate(0,-664.08197)" /><g
     id="g27"
     transform="translate(0,-664.08197)" /><g
     id="g29"
     transform="translate(0,-664.08197)" /><g
     id="g31"
     transform="translate(0,-664.08197)" /><g
     id="g33"
     transform="translate(0,-664.08197)" /><g
     id="g35"
     transform="translate(0,-664.08197)" /><g
     id="g37"
     transform="translate(0,-664.08197)" /></svg>