<?xml version="1.0" encoding="UTF-8" standalone="no"?>
<svg
   xmlns:dc="http://purl.org/dc/elements/1.1/"
   xmlns:cc="http://creativecommons.org/ns#"
   xmlns:rdf="http://www.w3.org/1999/02/22-rdf-syntax-ns#"
   xmlns:svg="http://www.w3.org/2000/svg"
   xmlns="http://www.w3.org/2000/svg"
   xmlns:sodipodi="http://sodipodi.sourceforge.net/DTD/sodipodi-0.dtd"
   xmlns:inkscape="http://www.inkscape.org/namespaces/inkscape"
   height="256"
   viewBox="0 0 128 128"
   width="256"
   version="1.1"
   id="svg6"
   sodipodi:docname="categories.svg"
   style="fill:#ffffff"
   inkscape:version="0.92.1 r15371">
  <metadata
     id="metadata12">
    <rdf:RDF>
      <cc:Work
         rdf:about="">
        <dc:format>image/svg+xml</dc:format>
        <dc:type
           rdf:resource="http://purl.org/dc/dcmitype/StillImage" />
        <dc:title></dc:title>
      </cc:Work>
    </rdf:RDF>
  </metadata>
  <defs
     id="defs10" />
  <sodipodi:namedview
     pagecolor="#ffffff"
     bordercolor="#666666"
     borderopacity="1"
     objecttolerance="10"
     gridtolerance="10"
     guidetolerance="10"
     inkscape:pageopacity="0"
     inkscape:pageshadow="2"
     inkscape:window-width="1920"
     inkscape:window-height="1024"
     id="namedview8"
     showgrid="false"
     inkscape:zoom="1.2291667"
     inkscape:cx="14.082823"
     inkscape:cy="-45.509223"
     inkscape:window-x="0"
     inkscape:window-y="0"
     inkscape:window-maximized="1"
     inkscape:current-layer="svg6" />
  <path
     d="m 99.2,38.8375 c -7.68,0 -14.933333,2.986658 -20.106667,8.159976 L 64,60.384104 55.893333,67.53075 h 0.05333 L 41.6,80.277376 c -3.413333,3.41333 -7.946667,5.279985 -12.8,5.279985 -9.973333,0 -18.08,-8.053307 -18.08,-18.026611 0,-9.973304 8.106667,-18.026614 18.08,-18.026614 4.853333,0 9.386667,1.866662 13.013333,5.493317 l 6.026667,5.333318 8.053333,-7.146646 -6.72,-5.919983 C 43.733333,41.824158 36.48,38.8375 28.8,38.8375 12.906667,38.8375 0,51.744129 0,67.53075 0,83.317368 12.906667,96.224 28.8,96.224 c 7.68,0 14.933333,-2.986661 20.106667,-8.159976 L 64,74.73073 l 0.05333,0.05333 8.053334,-7.253312 h -0.05333 L 86.4,54.784121 c 3.413333,-3.413323 7.946667,-5.279985 12.8,-5.279985 9.97333,0 18.08,8.05331 18.08,18.026614 0,9.973304 -8.10667,18.026611 -18.08,18.026611 -4.8,0 -9.386667,-1.866655 -13.013333,-5.493314 l -6.08,-5.386651 -8.053334,7.146646 6.773334,5.973313 c 5.44,5.386654 12.64,8.373315 20.373333,8.373315 15.89333,0 28.8,-12.853302 28.8,-28.693253 C 128,51.637463 115.09333,38.8375 99.2,38.8375 Z"
     id="path2"
     style="fill:#fafafa;stroke-width:5.33332586;fill-opacity:1"
     inkscape:connector-curvature="0" />
</svg>
