<?xml version="1.0" encoding="UTF-8" standalone="no"?>
<svg
   xmlns:dc="http://purl.org/dc/elements/1.1/"
   xmlns:cc="http://creativecommons.org/ns#"
   xmlns:rdf="http://www.w3.org/1999/02/22-rdf-syntax-ns#"
   xmlns:svg="http://www.w3.org/2000/svg"
   xmlns="http://www.w3.org/2000/svg"
   xmlns:sodipodi="http://sodipodi.sourceforge.net/DTD/sodipodi-0.dtd"
   xmlns:inkscape="http://www.inkscape.org/namespaces/inkscape"
   height="256"
   viewBox="0 0 128 128"
   width="256"
   version="1.1"
   id="svg8"
   sodipodi:docname="development.svg"
   style="fill:#ffffff"
   inkscape:version="0.92.1 r15371">
  <metadata
     id="metadata14">
    <rdf:RDF>
      <cc:Work
         rdf:about="">
        <dc:format>image/svg+xml</dc:format>
        <dc:type
           rdf:resource="http://purl.org/dc/dcmitype/StillImage" />
        <dc:title></dc:title>
      </cc:Work>
    </rdf:RDF>
  </metadata>
  <defs
     id="defs12" />
  <sodipodi:namedview
     pagecolor="#ffffff"
     bordercolor="#666666"
     borderopacity="1"
     objecttolerance="10"
     gridtolerance="10"
     guidetolerance="10"
     inkscape:pageopacity="0"
     inkscape:pageshadow="2"
     inkscape:window-width="1920"
     inkscape:window-height="1138"
     id="namedview10"
     showgrid="false"
     inkscape:zoom="1.7383042"
     inkscape:cx="-15.436584"
     inkscape:cy="-1.6825295"
     inkscape:window-x="1920"
     inkscape:window-y="0"
     inkscape:window-maximized="1"
     inkscape:current-layer="svg8" />
  <path
     d="M 123,46.300001 V 34.5 H 111.20001 V 22.700001 c 0,-6.49 -5.31,-11.800001 -11.800003,-11.800001 H 16.799999 C 10.309999,10.9 5,16.210001 5,22.700001 V 105.3 c 0,6.49 5.309999,11.8 11.799999,11.8 h 82.600008 c 6.490003,0 11.800003,-5.31 11.800003,-11.8 V 93.5 H 123 V 81.7 H 111.20001 V 69.9 H 123 V 58.1 H 111.20001 V 46.300001 Z M 99.400007,105.3 H 16.799999 V 22.700001 H 99.400007 Z M 28.600015,69.9 H 58.100013 V 93.5 H 28.600015 Z M 64.000012,34.5 H 87.600009 V 52.2 H 64.000012 Z m -35.399997,0 H 58.100013 V 64 H 28.600015 Z M 64.000012,58.1 H 87.600009 V 93.5 H 64.000012 Z"
     id="path4"
     style="fill:#fafafa;stroke-width:5.89999914;fill-opacity:1"
     inkscape:connector-curvature="0" />
</svg>
