<?xml version="1.0" encoding="UTF-8" standalone="no"?>
<!-- Generator: Adobe Illustrator 16.0.0, SVG Export Plug-In . SVG Version: 6.00 Build 0)  -->

<svg
   xmlns:dc="http://purl.org/dc/elements/1.1/"
   xmlns:cc="http://creativecommons.org/ns#"
   xmlns:rdf="http://www.w3.org/1999/02/22-rdf-syntax-ns#"
   xmlns:svg="http://www.w3.org/2000/svg"
   xmlns="http://www.w3.org/2000/svg"
   xmlns:sodipodi="http://sodipodi.sourceforge.net/DTD/sodipodi-0.dtd"
   xmlns:inkscape="http://www.inkscape.org/namespaces/inkscape"
   version="1.1"
   id="Capa_1"
   x="0px"
   y="0px"
   width="48"
   height="48"
   viewBox="0 0 48.000001 48.000001"
   xml:space="preserve"
   sodipodi:docname="download-dark.svg"
   inkscape:version="0.92.1 r15371"><metadata
     id="metadata43"><rdf:RDF><cc:Work
         rdf:about=""><dc:format>image/svg+xml</dc:format><dc:type
           rdf:resource="http://purl.org/dc/dcmitype/StillImage" /><dc:title></dc:title></cc:Work></rdf:RDF></metadata><defs
     id="defs41" /><sodipodi:namedview
     pagecolor="#ffffff"
     bordercolor="#666666"
     borderopacity="1"
     objecttolerance="10"
     gridtolerance="10"
     guidetolerance="10"
     inkscape:pageopacity="0"
     inkscape:pageshadow="2"
     inkscape:window-width="1920"
     inkscape:window-height="1172"
     id="namedview39"
     showgrid="false"
     inkscape:zoom="7.9940808"
     inkscape:cx="21.183034"
     inkscape:cy="22.947697"
     inkscape:window-x="0"
     inkscape:window-y="0"
     inkscape:window-maximized="1"
     inkscape:current-layer="Capa_1" /><g
     id="g6"
     transform="matrix(0.04869274,0,0,0.04869324,1,1.7692472)"
     style="fill:#2b2b2b;fill-opacity:1"><path
       d="m 894.801,579.05 h -309.5 l -41.5,47.199 c -18,20.5 -44.102,32.301 -71.401,32.301 -27.3,0 -53.4,-11.801 -71.4,-32.301 L 359.5,579.05 H 50 c -27.6,0 -50,22.4 -50,50 v 198.5 c 0,27.6 22.4,50 50,50 h 844.699 c 27.602,0 50,-22.4 50,-50 v -198.5 c 0.102,-27.6 -22.299,-50 -49.898,-50 z M 139.2,770.95 c -23.5,0 -42.6,-19.102 -42.6,-42.602 0,-23.5 19.1,-42.6 42.6,-42.6 23.5,0 42.6,19.1 42.6,42.6 0,23.5 -19.1,42.602 -42.6,42.602 z"
       id="path2"
       inkscape:connector-curvature="0"
       style="fill:#2b2b2b;fill-opacity:1" /><path
       d="m 419.4,579.05 15.4,17.6 c 10,11.301 23.8,17 37.6,17 13.799,0 27.6,-5.699 37.6,-17 l 15.4,-17.6 208.7,-237.8 c 28.4,-32.3 5.4,-83 -37.6,-83 h -65.6 v -141.1 c 0,-27.6 -22.4,-50 -50,-50 h -217 c -27.6,0 -50,22.4 -50,50 v 141.2 h -65.6 c -43,0 -65.9,50.7 -37.6,83 z"
       id="path4"
       inkscape:connector-curvature="0"
       style="fill:#2b2b2b;fill-opacity:1" /></g><g
     id="g8"
     transform="translate(0,-896.69897)" /><g
     id="g10"
     transform="translate(0,-896.69897)" /><g
     id="g12"
     transform="translate(0,-896.69897)" /><g
     id="g14"
     transform="translate(0,-896.69897)" /><g
     id="g16"
     transform="translate(0,-896.69897)" /><g
     id="g18"
     transform="translate(0,-896.69897)" /><g
     id="g20"
     transform="translate(0,-896.69897)" /><g
     id="g22"
     transform="translate(0,-896.69897)" /><g
     id="g24"
     transform="translate(0,-896.69897)" /><g
     id="g26"
     transform="translate(0,-896.69897)" /><g
     id="g28"
     transform="translate(0,-896.69897)" /><g
     id="g30"
     transform="translate(0,-896.69897)" /><g
     id="g32"
     transform="translate(0,-896.69897)" /><g
     id="g34"
     transform="translate(0,-896.69897)" /><g
     id="g36"
     transform="translate(0,-896.69897)" /></svg>