<?xml version="1.0" encoding="UTF-8" standalone="no"?>
<svg
   xmlns:dc="http://purl.org/dc/elements/1.1/"
   xmlns:cc="http://creativecommons.org/ns#"
   xmlns:rdf="http://www.w3.org/1999/02/22-rdf-syntax-ns#"
   xmlns:svg="http://www.w3.org/2000/svg"
   xmlns="http://www.w3.org/2000/svg"
   xmlns:sodipodi="http://sodipodi.sourceforge.net/DTD/sodipodi-0.dtd"
   xmlns:inkscape="http://www.inkscape.org/namespaces/inkscape"
   height="256"
   viewBox="0 0 128 128"
   width="256"
   version="1.1"
   id="svg6"
   sodipodi:docname="graphics.svg"
   style="fill:#ffffff"
   inkscape:version="0.92.1 r15371">
  <metadata
     id="metadata12">
    <rdf:RDF>
      <cc:Work
         rdf:about="">
        <dc:format>image/svg+xml</dc:format>
        <dc:type
           rdf:resource="http://purl.org/dc/dcmitype/StillImage" />
        <dc:title></dc:title>
      </cc:Work>
    </rdf:RDF>
  </metadata>
  <defs
     id="defs10" />
  <sodipodi:namedview
     pagecolor="#ffffff"
     bordercolor="#666666"
     borderopacity="1"
     objecttolerance="10"
     gridtolerance="10"
     guidetolerance="10"
     inkscape:pageopacity="0"
     inkscape:pageshadow="2"
     inkscape:window-width="1920"
     inkscape:window-height="1138"
     id="namedview8"
     showgrid="false"
     inkscape:zoom="3.4766083"
     inkscape:cx="12.572015"
     inkscape:cy="56.396904"
     inkscape:window-x="1920"
     inkscape:window-y="0"
     inkscape:window-maximized="1"
     inkscape:current-layer="svg6" />
  <path
     d="M 16.800001,16.8 H 58.099999 V 5 H 16.800001 C 10.31,5 5,10.31 5,16.8 V 58.1 H 16.800001 Z M 52.199999,69.9 28.600001,99.4 H 99.4 L 81.7,75.8 69.722999,91.789 Z M 93.5,43.35 c 0,-4.897 -3.953,-8.85 -8.85,-8.85 -4.897,0 -8.850001,3.953 -8.850001,8.85 0,4.897001 3.953001,8.85 8.850001,8.85 4.897,0 8.85,-3.952999 8.85,-8.85 z M 111.2,5 H 69.899999 V 16.8 H 111.2 V 58.1 H 123 V 16.8 C 123,10.31 117.69,5 111.2,5 Z m 0,106.2 H 69.899999 V 123 H 111.2 c 6.49,0 11.8,-5.31 11.8,-11.8 V 69.9 H 111.2 Z M 16.800001,69.9 H 5 v 41.3 c 0,6.49 5.31,11.8 11.800001,11.8 H 58.099999 V 111.2 H 16.800001 Z"
     id="path2"
     inkscape:connector-curvature="0"
     style="fill:#fafafa;stroke-width:5.9000001;fill-opacity:1" />
</svg>
