<?xml version="1.0" encoding="UTF-8" standalone="no"?>
<svg
   xmlns:ns2="http://ns.adobe.com/AdobeIllustrator/10.0/"
   xmlns:dc="http://purl.org/dc/elements/1.1/"
   xmlns:cc="http://creativecommons.org/ns#"
   xmlns:rdf="http://www.w3.org/1999/02/22-rdf-syntax-ns#"
   xmlns:svg="http://www.w3.org/2000/svg"
   xmlns="http://www.w3.org/2000/svg"
   xmlns:sodipodi="http://sodipodi.sourceforge.net/DTD/sodipodi-0.dtd"
   xmlns:inkscape="http://www.inkscape.org/namespaces/inkscape"
   id="Layer_1"
   data-name="Layer 1"
   viewBox="0 0 256.00001 255.99999"
   version="1.1"
   sodipodi:docname="icon.svg"
   width="256"
   height="256"
   inkscape:version="0.92.1 r15371">
  <metadata
     id="metadata21">
    <rdf:RDF>
      <cc:Work
         rdf:about="">
        <dc:format>image/svg+xml</dc:format>
        <dc:type
           rdf:resource="http://purl.org/dc/dcmitype/StillImage" />
        <dc:title>cart</dc:title>
      </cc:Work>
    </rdf:RDF>
  </metadata>
  <sodipodi:namedview
     pagecolor="#ffffff"
     bordercolor="#666666"
     borderopacity="1"
     objecttolerance="10"
     gridtolerance="10"
     guidetolerance="10"
     inkscape:pageopacity="0"
     inkscape:pageshadow="2"
     inkscape:window-width="1920"
     inkscape:window-height="1138"
     id="namedview19"
     showgrid="false"
     inkscape:zoom="1.7150791"
     inkscape:cx="-22.646127"
     inkscape:cy="96.441516"
     inkscape:window-x="1920"
     inkscape:window-y="0"
     inkscape:window-maximized="1"
     inkscape:current-layer="Layer_1" />
  <defs
     id="defs4">
    <style
       id="style2">.cls-1{fill:#373737;}</style>
  </defs>
  <title
     id="title6">cart</title>
  <g
     id="g4663"
     transform="matrix(1.1276457,0,0,1,-15.042331,-8.1524463e-6)">
    <path
       inkscape:connector-curvature="0"
       id="path4544"
       d="M 47.909419,64.604922 32.011579,239.35064 222.7204,239.40285 206.32657,64.604922 Z"
       style="fill:#fafafa;fill-opacity:1;fill-rule:evenodd;stroke:#000000;stroke-width:1px;stroke-linecap:butt;stroke-linejoin:miter;stroke-opacity:1" />
    <g
       style="fill:#2c2c2c;fill-opacity:1"
       transform="matrix(1.3052414,0,0,1.3052414,16.022372,1.0000081)"
       id="g4505">
      <path
         style="fill:#2c2c2c;fill-opacity:1"
         inkscape:connector-curvature="0"
         class="cls-1"
         d="M 1912.74,713.26 1899.92,580.2 A 12.42,12.42 0 0 0 1887.56,569 H 1768.2 a 12.42,12.42 0 0 0 -12.36,11.22 L 1743,713.26 a 12.42,12.42 0 0 0 12.36,13.61 h 145 a 12.42,12.42 0 0 0 12.38,-13.61 z m -157.53,1.62 12.18,-133.88 h 121.37 l 12.56,133.92 z"
         transform="translate(-1742.96,-532.27)"
         id="path8" />
      <rect
         style="fill:#2c2c2c;fill-opacity:1"
         class="cls-1"
         x="9.0200005"
         y="152.72"
         width="151.42"
         height="12.17"
         id="rect10" />
      <path
         style="fill:#2c2c2c;fill-opacity:1"
         inkscape:connector-curvature="0"
         class="cls-1"
         d="m 1828.17,544.06 c 16.41,0 29.81,13.15 30.59,29.68 h 11.64 c 0,-22.9 -18.91,-41.47 -42.23,-41.47 -23.32,0 -42.23,18.57 -42.23,41.47 h 11.64 c 0.78,-16.53 14.17,-29.68 30.59,-29.68 z"
         transform="translate(-1742.96,-532.27)"
         id="path12" />
      <path
         style="fill:#2c2c2c;fill-opacity:1"
         inkscape:connector-curvature="0"
         class="cls-1"
         d="M 1797.45,595.62 V 573.74 H 1786 v 21.55 a 8.75,8.75 0 1 0 11.41,0.33 z m -5.9,9.51 a 3,3 0 1 1 3,-3 3,3 0 0 1 -3,3 z"
         transform="translate(-1742.96,-532.27)"
         id="path14" />
      <path
         style="fill:#2c2c2c;fill-opacity:1"
         inkscape:connector-curvature="0"
         class="cls-1"
         d="m 1870.3,595.81 v -21.88 h -11.41 v 21.55 a 8.75,8.75 0 1 0 11.41,0.33 z m -5.9,9.51 a 3,3 0 1 1 3,-3 3,3 0 0 1 -2.99,3 z"
         transform="translate(-1742.96,-532.27)"
         id="path16" />
    </g>
  </g>
  <rect
     y="101.00002"
     x="76.850418"
     height="100"
     width="100"
     id="rect3861"
     style="opacity:0;fill:#ffffff;fill-opacity:1;stroke:none;stroke-width:1.5625" />
  <g
     id="g5082"
     transform="matrix(0.5077457,0,0,0.5077457,-24.456589,15.575983)"
     style="fill:#ffcb08;fill-opacity:1">
    <polygon
       id="polygon5084"
       points="202.927,198.549 225.85,234.284 248.776,190.457 218.433,178.322 "
       ns2:knockout="Off"
       style="fill:#ffcb08;fill-opacity:1" />
    <polygon
       id="polygon5086"
       points="393.074,198.549 370.148,234.284 347.224,190.457 377.565,178.322 "
       ns2:knockout="Off"
       style="fill:#ffcb08;fill-opacity:1" />
  </g>
  <path
     id="path5088"
     d="m 162.40246,139.91529 -11.97569,-22.79372 c -0.4458,-0.84235 -1.82738,-1.92283 -2.74284,-2.14066 l -0.22239,-0.0548 -18.01685,-4.28792 c -1.24296,-0.29703 -3.51208,-0.3021 -4.75758,-0.01 l -18.44589,4.3133 -0.2295,0.0538 c -0.91242,0.21274 -2.28943,1.2851 -2.73218,2.12542 l -11.976202,22.79372 -1.658298,3.15107 c -0.524501,0.99924 -0.846412,3.00687 -0.659561,4.12442 l 3.327765,20.00163 c 0.112719,0.68088 0.926128,1.57401 1.583151,1.74004 l 9.061735,2.28739 c -0.2229,-0.89058 1.83195,-1.81874 1.8289,-2.69765 l 4.61389,-10.05793 c 0.003,0.17415 -0.0122,0.3539 -0.0467,0.53211 l -1.72989,8.95004 c -0.18787,0.97792 0.1904,2.73116 0.76161,3.54152 l 0.95761,1.34858 4.50168,6.3519 6.60983,9.33439 c 0.50724,0.71339 1.90506,1.44251 2.77178,1.44251 h 7.25163 c 0.86621,0 2.26353,-0.72912 2.76823,-1.44251 l 6.5489,-9.243 4.51792,-6.37526 1.00229,-1.41661 c 0.57274,-0.81036 0.94999,-2.5636 0.76162,-3.54152 l -1.72887,-8.95004 c -0.0315,-0.17821 -0.0482,-0.35796 -0.0457,-0.52907 l 4.61338,10.05692 c -0.002,0.88957 2.04926,1.83043 1.82128,2.73777 l 9.06529,-2.32142 c 0.65804,-0.16806 1.47348,-1.06525 1.58569,-1.74816 l 3.32929,-20.00163 c 0.18837,-1.11755 -0.13303,-3.12518 -0.65905,-4.12442 z"
     ns2:knockout="Off"
     style="fill:#ffcb08;fill-opacity:1;stroke-width:0.50774568"
     inkscape:connector-curvature="0" />
  <path
     id="path5090"
     d="m 176.79248,114.69556 c -0.47626,-1.42016 -1.97411,-3.96905 -3.31862,-5.66543 -1.34756,-1.69841 -3.54102,-3.70857 -4.87335,-4.46714 -1.33334,-0.76162 -7.42883,0.90429 -10.51186,2.3143 l -2.25033,1.02717 c -3.08303,1.41103 -5.64867,2.58595 -5.70046,2.61032 -0.0503,0.0264 -0.41279,0 -0.69409,-0.11627 -0.2823,-0.12135 -3.71263,-0.96573 -7.01552,-1.73802 l -5.9132,-1.38157 c -3.30391,-0.77228 -7.11149,-1.50801 -8.46413,-1.63545 -1.35365,-0.12846 -7.12621,0.83829 -10.42909,1.59635 l -6.33007,1.45469 c -3.30491,0.75756 -6.23867,1.44708 -6.5159,1.53136 -0.28027,0.0823 -1.06017,0.3666 -1.11298,0.33816 -0.0523,-0.0299 -2.71694,-1.24905 -5.79896,-2.66008 l -2.24779,-1.02717 c -3.085571,-1.41001 -6.890617,-2.65703 -8.458536,-2.77229 -1.567919,-0.11526 -5.581141,3.22673 -6.927175,4.92514 -1.349588,1.69587 -2.843375,4.24729 -3.32218,5.66695 -0.478804,1.42016 2.118315,7.01501 4.016269,9.82538 l 3.879177,5.75378 c 1.894907,2.81037 2.939848,6.05943 2.317351,7.2176 -0.620973,1.16274 -1.469923,3.22774 -1.888306,4.59104 -0.41889,1.36583 0.06499,7.35317 0.630112,10.69668 l 1.211989,7.13636 c 0.566137,3.343 1.629864,7.19679 2.363049,8.56415 0.735216,1.36837 6.550427,3.78372 9.843158,4.59916 l 1.472972,0.36507 c 3.28918,0.81595 7.60552,3.73447 9.58827,6.48442 l 2.65906,3.67912 c 1.98173,2.75097 4.5687,5.77003 5.74768,6.71037 1.17442,0.93984 6.14423,1.70907 8.10261,1.70907 1.96193,0 4.74945,-0.33105 6.2011,-0.73521 1.45012,-0.40366 5.66644,-4.93275 7.64817,-7.68423 l 2.6154,-3.62175 c 1.98376,-2.74741 6.29554,-5.67355 9.58573,-6.49965 l 1.53339,-0.38538 c 3.28816,-0.8261 7.04853,-2.18635 8.35394,-3.02261 1.30643,-0.83727 3.27344,-6.82004 3.8411,-10.16303 l 1.20945,-7.13485 c 0.56461,-3.34503 0.99721,-7.24604 0.96065,-8.67534 -0.036,-1.42575 -1.59686,-5.45116 -2.21884,-6.6139 -0.62047,-1.15867 0.42346,-4.40723 2.31785,-7.2176 l 3.87918,-5.75378 c 1.89592,-2.80935 4.49304,-8.4042 4.01373,-9.82589 z m -92.201033,6.53266 c -1.687239,-2.49913 -3.13736,-4.73169 -3.225708,-4.95662 0,0 0,0 0,-0.25895 0,-0.32445 0,-0.32445 0,-0.32445 0.129475,-0.29601 1.339941,-1.92486 2.686482,-3.62226 1.349588,-1.69587 2.667696,-3.18711 2.931216,-3.31557 0.262505,-0.12694 3.51817,1.15969 6.60171,2.56665 l 0.48185,0.22138 c 3.08354,1.4095 5.561339,2.63418 5.50701,2.72202 -0.05534,0.0878 -1.496834,2.76468 -3.096233,5.75581 l -2.71187,5.06679 c -1.599399,2.99062 -7.487726,-1.35314 -9.174457,-3.8548 z m 79.396193,23.15472 c 0.0371,0.82661 -0.39756,4.23968 -0.96268,7.5842 l -1.21199,7.13687 c -0.56512,3.34148 -1.23281,6.42146 -1.48668,6.84035 -0.24778,0.41839 -3.10385,1.42626 -5.55322,2.04216 -2.45241,0.61589 -4.37575,0.71693 -4.28182,0.22848 0.0939,-0.492 -1.32674,-3.93452 -3.15868,-6.60272 -1.835,-2.66617 -3.33386,-4.7718 -3.33132,-4.67888 0.003,0.0924 0.42041,2.28283 0.88957,4.65603 0.46763,2.37625 0.80833,4.91244 0.75806,5.63699 -0.0518,0.72506 -0.8789,2.40367 -1.14852,2.78042 -0.27215,0.37624 -1.49175,2.06703 -2.7139,3.75681 -1.22265,1.69079 -3.66541,5.08152 -5.43592,7.53291 -1.76797,2.45038 -3.63597,4.77231 -4.15184,5.15413 -0.51536,0.38132 -3.38666,0.69612 -5.34859,0.69612 -1.95787,0 -4.06248,-0.15893 -4.67482,-0.35339 -0.60929,-0.19345 -3.07186,-3.06475 -4.8576,-5.54002 -1.78676,-2.47576 -4.24374,-5.8802 -5.45827,-7.56541 -1.21706,-1.6852 -2.42042,-3.35518 -2.68191,-3.71365 -0.2559,-0.35796 -0.67835,-1.20793 -0.93527,-1.88678 -0.25539,-0.68038 0.10307,-4.12188 0.56918,-6.49813 0.46815,-2.3732 0.86063,-4.392 0.87384,-4.48796 0.0137,-0.095 -1.47805,1.84413 -3.31254,4.51132 -1.83499,2.66871 -3.30695,5.24247 -3.27394,5.72127 0.0315,0.47932 -1.72685,1.23586 -4.174179,0.62809 -2.446827,-0.60676 -4.775349,-1.33487 -5.172406,-1.61464 -0.396549,-0.27976 -1.29729,-3.90151 -1.86495,-7.24299 l -1.208942,-7.13687 c -0.566645,-3.34452 -0.999752,-6.75759 -0.963194,-7.5842 0.03707,-0.83016 0.947961,-3.15919 1.396809,-3.99342 0.4458,-0.83575 2.122884,-3.96702 3.722791,-6.95662 l 5.948241,-11.11405 c 1.59889,-2.98808 3.30999,-5.84821 3.802,-6.35748 0.49251,-0.50775 1.84261,-1.13989 1.90455,-1.15411 0.064,-0.0142 2.81647,-0.64737 6.12189,-1.40442 l 6.10514,-1.4029 c 3.30238,-0.75908 6.78399,-1.44149 7.73347,-1.51766 0.94999,-0.0756 5.64969,0.78041 8.95308,1.55167 l 5.69386,1.32979 c 3.30238,0.77228 6.05385,1.4161 6.11326,1.43134 0.0604,0.0127 0.61793,0.30617 1.23789,0.64991 0.62097,0.34425 2.87282,3.88476 4.47273,6.87335 l 5.94875,11.11405 c 1.59838,2.9891 3.27648,6.12037 3.72279,6.95662 0.44783,0.83423 1.36076,3.16326 1.39528,3.99342 z m 8.35039,-28.11134 c -0.0883,0.22493 -1.54203,2.45749 -3.22673,4.95662 -1.6847,2.50166 -7.57302,6.84542 -9.17141,3.8548 l -2.7139,-5.06679 c -1.60193,-2.99113 -2.95051,-5.50904 -2.99976,-5.59688 -0.0523,-0.0873 2.32802,-1.47145 5.41155,-2.88095 l 0.47982,-0.22138 c 3.08202,-1.40696 5.89239,-2.56665 6.24325,-2.57732 0.35085,-0.008 1.94162,1.63037 3.28968,3.32624 1.34451,1.6974 2.55701,3.32625 2.6875,3.62226 0,0 0,0 0,0.32445 0,0.25895 0,0.25895 0,0.25895 z"
     ns2:knockout="Off"
     inkscape:connector-curvature="0"
     style="fill:#2c2c2c;fill-opacity:1;stroke-width:0.50774568" />
  <path
     id="path5092"
     d="m 118.23468,161.77526 c -0.7276,-1.45723 0.008,-2.65297 1.64052,-2.65297 h 13.95184 c 1.62986,0 2.36762,1.19574 1.64103,2.65297 l -7.29122,8.28895 c -0.72963,1.45825 -1.91928,1.45825 -2.65094,0 z"
     ns2:knockout="Off"
     inkscape:connector-curvature="0"
     style="stroke-width:0.50774568" />
  <path
     id="path5094"
     d="m 126.85112,179.55144 c 0.002,0 0.98503,0.90125 2.18991,2.00204 l 4.73777,4.33006 c 1.20692,1.09825 2.5235,1.20843 2.92665,0.24016 0.40366,-0.96776 -0.36608,-2.50928 -1.71415,-3.42881 l -4.48746,-3.06069 c -1.34755,-0.91952 -2.44682,-1.70145 -2.44174,-1.73801 0.004,-0.0345 0.0102,-1.47043 0.0102,-3.10182 v -8.358 c 0,-1.63139 -0.24575,-3.51614 -0.54684,-4.18738 0,0 0,0 -0.67429,0 -0.67327,0 -0.67327,0 -0.67327,0 -0.30109,0.67124 -0.54684,2.55549 -0.54684,4.18738 v 8.358 c 0,1.63139 0.003,2.99722 0.005,3.03581 0.004,0.0356 -1.08759,0.8845 -2.43617,1.80402 l -4.48745,3.06069 c -1.34705,0.91953 -2.12035,2.46105 -1.71466,3.42881 0.4062,0.96878 1.71974,0.85809 2.92614,-0.24016 l 4.73879,-4.33006 c 1.20488,-1.10079 2.18889,-2.00204 2.18889,-2.00204 z"
     ns2:knockout="Off"
     inkscape:connector-curvature="0"
     style="stroke-width:0.50774568" />
  <g
     id="g5096"
     transform="matrix(0.5077457,0,0,0.5077457,-24.456589,15.575983)">
    <path
       id="path5098"
       d="m 246.885,244.751 c -3.453,0.1 -3.48,0.578 -0.063,1.067 l 28.657,4.092 c 3.413,0.489 5.948,3.696 5.627,7.127 l -3.658,12.79 c -0.309,3.431 0.762,6.337 2.396,6.457 1.634,0.12 2.98,0.104 2.99,-0.036 0.005,-0.137 0.14,-3.068 0.284,-6.513 l 2.993,-12.004 c 0.15,-3.446 0.345,-8.027 0.438,-10.181 0.099,-2.154 -0.813,-3.892 -2.019,-3.856 -1.206,0.035 -5.015,0.139 -8.463,0.237 z"
       ns2:knockout="Off"
       inkscape:connector-curvature="0" />
    <path
       id="path5100"
       d="m 319.935,243.932 c -3.449,-0.098 -7.259,-0.202 -8.458,-0.237 -1.212,-0.036 -2.124,1.702 -2.032,3.856 0.093,2.154 0.294,6.735 0.442,10.181 l 2.99,12.004 c 0.15,3.444 0.279,6.375 0.295,6.513 0.006,0.14 1.35,0.155 2.983,0.036 1.635,-0.119 2.71,-3.025 2.39,-6.457 l -3.652,-12.79 c -0.317,-3.431 2.216,-6.638 5.627,-7.127 l 28.657,-4.092 c 3.411,-0.489 3.391,-0.967 -0.062,-1.067 z"
       ns2:knockout="Off"
       inkscape:connector-curvature="0" />
  </g>
  <g
     id="g5102"
     transform="matrix(0.5077457,0,0,0.5077457,-24.456589,15.575983)">
    <circle
       id="circle5104"
       r="3.974"
       cy="249.082"
       cx="268.66599"
       ns2:knockout="Off" />
    <path
       id="path5106"
       d="m 331.314,249.082 c 0,2.199 -1.786,3.978 -3.979,3.978 -2.202,0 -3.98,-1.779 -3.98,-3.978 0,-2.195 1.778,-3.974 3.98,-3.974 2.193,-0.001 3.979,1.779 3.979,3.974 z"
       ns2:knockout="Off"
       inkscape:connector-curvature="0" />
  </g>
  <g
     id="g5108"
     transform="matrix(0.5077457,0,0,0.5077457,-24.456589,15.575983)">
    <g
       id="g5111">
      <g
         id="g5113"
         ns2:knockout="Off">
        <g
           id="g5115">
          <path
             id="path5117"
             d="m 282.442,299.431 c -22.72,6.003 -41.634,16.871 -60.114,31.306"
             ns2:knockout="Off"
             style="fill:none"
             inkscape:connector-curvature="0" />
          <path
             id="path5119"
             d="m 282.2,298.054 c -21.88,5.292 -43.854,16.737 -60.637,31.78 -1.164,1.042 0.289,2.639 1.532,1.807 9.16,-6.125 17.966,-12.6 27.651,-17.915 10.139,-5.564 20.881,-9.605 31.939,-12.917 1.686,-0.505 1.297,-3.186 -0.485,-2.755 z"
             ns2:knockout="Off"
             inkscape:connector-curvature="0" />
        </g>
      </g>
      <g
         id="g5121"
         ns2:knockout="Off">
        <g
           id="g5123">
          <path
             id="path5125"
             d="m 282.968,306.988 c -16.705,1.636 -33.563,20.751 -43.912,33.257"
             ns2:knockout="Off"
             style="fill:none"
             inkscape:connector-curvature="0" />
          <path
             id="path5127"
             d="m 282.77,305.868 c -9.444,0.723 -17.431,6.122 -24.537,12.016 -7.479,6.204 -14.603,13.695 -20.01,21.778 -0.624,0.933 0.641,2.192 1.491,1.359 12.808,-12.552 24.483,-29.631 43.451,-32.913 1.472,-0.254 1.04,-2.351 -0.395,-2.24 z"
             ns2:knockout="Off"
             inkscape:connector-curvature="0" />
        </g>
      </g>
      <g
         id="g5129"
         ns2:knockout="Off">
        <g
           id="g5131">
          <path
             id="path5133"
             d="m 284.562,314.588 c -16.175,4.496 -29.483,26.229 -37.521,40.328"
             ns2:knockout="Off"
             style="fill:none"
             inkscape:connector-curvature="0" />
          <path
             id="path5135"
             d="m 284.364,313.467 c -8.867,2.251 -15.541,8.416 -21.442,15.134 -6.738,7.671 -12.65,16.651 -16.835,25.961 -0.484,1.078 1.134,1.858 1.787,0.937 10.368,-14.624 19.083,-33.416 37.176,-39.883 1.208,-0.432 0.551,-2.463 -0.686,-2.149 z"
             ns2:knockout="Off"
             inkscape:connector-curvature="0" />
        </g>
      </g>
    </g>
    <g
       id="g5137">
      <g
         id="g5139"
         ns2:knockout="Off">
        <g
           id="g5141">
          <path
             id="path5143"
             d="m 313.56,299.431 c 22.718,6.003 41.628,16.871 60.104,31.306"
             ns2:knockout="Off"
             style="fill:none"
             inkscape:connector-curvature="0" />
          <path
             id="path5145"
             d="m 313.074,300.743 c 11.08,3.32 21.741,7.38 31.951,12.85 9.841,5.271 18.705,11.93 27.959,18.114 1.305,0.872 2.469,-0.947 1.359,-1.94 -16.666,-14.924 -38.57,-26.389 -60.299,-31.647 -1.712,-0.415 -2.727,2.097 -0.97,2.623 z"
             ns2:knockout="Off"
             inkscape:connector-curvature="0" />
        </g>
      </g>
      <g
         id="g5147"
         ns2:knockout="Off">
        <g
           id="g5149">
          <path
             id="path5151"
             d="m 313.03,306.988 c 16.707,1.636 33.564,20.751 43.913,33.257"
             ns2:knockout="Off"
             style="fill:none"
             inkscape:connector-curvature="0" />
          <path
             id="path5153"
             d="m 312.923,308.121 c 18.863,3.261 30.51,20.297 43.245,32.782 0.946,0.928 2.279,-0.229 1.551,-1.316 -5.477,-8.176 -12.608,-15.396 -20.064,-21.789 -6.961,-5.969 -15.178,-11.229 -24.517,-11.942 -1.482,-0.114 -1.644,2.018 -0.215,2.265 z"
             ns2:knockout="Off"
             inkscape:connector-curvature="0" />
        </g>
      </g>
      <g
         id="g5155"
         ns2:knockout="Off">
        <g
           id="g5157">
          <path
             id="path5159"
             d="m 311.435,314.588 c 16.172,4.496 29.49,26.229 37.524,40.328"
             ns2:knockout="Off"
             style="fill:none"
             inkscape:connector-curvature="0" />
          <path
             id="path5161"
             d="m 311.04,315.655 c 18.046,6.457 26.813,25.33 37.144,39.919 0.686,0.968 2.152,-0.075 1.694,-1.095 -4.017,-8.945 -9.716,-17.315 -15.94,-24.875 -5.824,-7.073 -13.024,-13.776 -22.108,-16.083 -1.392,-0.354 -2.199,1.63 -0.79,2.134 z"
             ns2:knockout="Off"
             inkscape:connector-curvature="0" />
        </g>
      </g>
    </g>
  </g>
  <g
     id="g5163"
     transform="matrix(0.5077457,0,0,0.5077457,-24.456589,15.575983)">
    <g
       id="g5165">
      <ellipse
         id="ellipse5167"
         ry="8.0299997"
         rx="6.4250002"
         cy="205.96201"
         cx="260.37"
         ns2:knockout="Off" />
      <path
         id="path5169"
         d="m 258.13,221.388 c 0,2.959 -2.396,5.353 -5.349,5.353 -2.959,0 -5.355,-2.394 -5.355,-5.353 0,-2.956 2.396,-5.353 5.355,-5.353 2.953,0.001 5.349,2.397 5.349,5.353 z"
         ns2:knockout="Off"
         inkscape:connector-curvature="0" />
      <path
         id="path5171"
         d="m 282.519,203.942 c -1.077,3.381 -3.318,5.69 -5.011,5.152 -1.688,-0.539 -2.19,-3.713 -1.111,-7.096 1.072,-3.382 3.314,-5.688 5.003,-5.148 1.691,0.537 2.191,3.716 1.119,7.092 z"
         ns2:knockout="Off"
         inkscape:connector-curvature="0" />
      <path
         id="path5173"
         d="m 274.432,223.038 c 0,1.778 -1.674,3.214 -3.748,3.214 -2.069,0 -3.746,-1.436 -3.746,-3.214 0,-1.774 1.676,-3.211 3.746,-3.211 2.074,0 3.748,1.437 3.748,3.211 z"
         ns2:knockout="Off"
         inkscape:connector-curvature="0" />
    </g>
    <g
       id="g5175">
      <path
         id="path5177"
         d="m 353.42,284.343 c -1.319,2.646 -0.248,5.858 2.4,7.178 2.646,1.321 5.86,0.247 7.179,-2.398 1.32,-2.649 0.242,-5.866 -2.401,-7.179 -2.643,-1.325 -5.859,-0.248 -7.178,2.399 z"
         ns2:knockout="Off"
         inkscape:connector-curvature="0" />
      <path
         id="path5179"
         d="m 354.672,270.667 c -0.546,3.506 0.429,6.572 2.179,6.845 1.759,0.272 3.618,-2.346 4.172,-5.85 0.546,-3.506 -0.429,-6.571 -2.188,-6.842 -1.748,-0.276 -3.616,2.342 -4.163,5.847 z"
         ns2:knockout="Off"
         inkscape:connector-curvature="0" />
      <path
         id="path5181"
         d="m 344.822,278.809 c -0.794,1.588 0.067,3.625 1.917,4.547 1.854,0.925 4,0.387 4.787,-1.2 0.796,-1.588 -0.066,-3.624 -1.916,-4.546 -1.851,-0.926 -3.999,-0.387 -4.788,1.199 z"
         ns2:knockout="Off"
         inkscape:connector-curvature="0" />
    </g>
  </g>
</svg>
