<?xml version="1.0" encoding="UTF-8" standalone="no"?>
<svg
   xmlns:dc="http://purl.org/dc/elements/1.1/"
   xmlns:cc="http://creativecommons.org/ns#"
   xmlns:rdf="http://www.w3.org/1999/02/22-rdf-syntax-ns#"
   xmlns:svg="http://www.w3.org/2000/svg"
   xmlns="http://www.w3.org/2000/svg"
   xmlns:sodipodi="http://sodipodi.sourceforge.net/DTD/sodipodi-0.dtd"
   xmlns:inkscape="http://www.inkscape.org/namespaces/inkscape"
   enable-background="new 0 0 24 24"
   id="Layer_1"
   version="1.0"
   viewBox="0 0 16 16"
   xml:space="preserve"
   sodipodi:docname="installed.svg"
   inkscape:version="0.92.1 r15371"
   width="16"
   height="16"><metadata
     id="metadata10"><rdf:RDF><cc:Work
         rdf:about=""><dc:format>image/svg+xml</dc:format><dc:type
           rdf:resource="http://purl.org/dc/dcmitype/StillImage" /><dc:title></dc:title></cc:Work></rdf:RDF></metadata><defs
     id="defs8" /><sodipodi:namedview
     pagecolor="#ffffff"
     bordercolor="#666666"
     borderopacity="1"
     objecttolerance="10"
     gridtolerance="10"
     guidetolerance="10"
     inkscape:pageopacity="0"
     inkscape:pageshadow="2"
     inkscape:window-width="1920"
     inkscape:window-height="1172"
     id="namedview6"
     showgrid="false"
     inkscape:zoom="27.812867"
     inkscape:cx="3.2048782"
     inkscape:cy="10.823331"
     inkscape:window-x="0"
     inkscape:window-y="0"
     inkscape:window-maximized="1"
     inkscape:current-layer="Layer_1" /><g
     id="g4500"
     transform="matrix(0.75453548,0,0,0.75228914,-1.0201362,-1.0298068)"><path
       inkscape:connector-curvature="0"
       id="path4491"
       d="m 8.6513577,14.007437 -2.5163068,-2.516692 0.6855103,-0.686924 0.6855103,-0.686924 1.8567885,1.85628 1.856789,1.856279 3.58437,-3.439481 c 1.971403,-1.8917145 4.06159,-3.8989332 4.644858,-4.460486 l 1.06049,-1.0210051 0.671433,0.7072901 0.671434,0.7072901 -5.312347,5.1005319 c -2.921791,2.805293 -5.325819,5.100533 -5.342285,5.100533 -0.01647,0 -1.162276,-1.132511 -2.5462443,-2.516692 z"
       style="opacity:1;fill:#009688;fill-opacity:1;stroke:none;stroke-width:0.01561017;stroke-linecap:round;stroke-linejoin:round;stroke-miterlimit:4;stroke-dasharray:none;stroke-opacity:1;paint-order:normal" /><path
       inkscape:connector-curvature="0"
       id="path4493"
       d="M 11.048923,21.9433 C 10.295425,21.864129 9.5448222,21.704785 8.8812036,21.483118 5.9105515,20.490837 3.5702024,18.174391 2.550886,15.217455 1.6401912,12.57562 1.8990108,9.6268729 3.2548862,7.1967389 4.1351788,5.6189917 5.3750408,4.3387703 6.9175668,3.4148327 8.1181778,2.6956943 9.421764,2.2562524 10.909092,2.0692802 c 0.423376,-0.053222 1.828489,-0.045384 2.275424,0.012694 0.917571,0.1192357 1.75682,0.3341826 2.618644,0.6706827 0.338227,0.1320611 1.424168,0.6486539 1.519356,0.7227731 0.04078,0.03175 -0.02103,0.1006357 -0.691193,0.77039 L 15.895349,4.9813419 15.645864,4.864229 C 14.687283,4.4142512 13.785623,4.1514145 12.777736,4.0281601 12.446346,3.9876343 11.560351,3.9880892 11.188753,4.0289759 9.3567573,4.2305497 7.7335323,4.9932903 6.4260151,6.2669495 5.0523054,7.6050867 4.2314709,9.295469 4.0300958,11.200976 c -0.049996,0.47309 -0.036662,1.397355 0.026732,1.852858 0.2503643,1.798955 1.0729933,3.424007 2.371423,4.684599 1.2897318,1.252148 2.8894271,2.009921 4.6945932,2.223821 0.39735,0.04708 1.261272,0.05326 1.64218,0.01173 3.657485,-0.398696 6.583043,-3.212523 7.132267,-6.859877 l 0.01627,-0.108051 h 0.990442 0.990443 l -0.0132,0.08263 c -0.0073,0.04545 -0.0313,0.214195 -0.05342,0.375 -0.320245,2.328349 -1.533484,4.566443 -3.304331,6.095587 -1.507305,1.301572 -3.230709,2.074144 -5.237288,2.347784 -0.499629,0.06814 -1.742174,0.08826 -2.237288,0.03624 z"
       style="opacity:1;fill:#009688;fill-opacity:1;stroke:none;stroke-width:0.00780508;stroke-linecap:round;stroke-linejoin:round;stroke-miterlimit:4;stroke-dasharray:none;stroke-opacity:1;paint-order:normal" /></g></svg>