<?xml version="1.0" encoding="UTF-8" standalone="no"?>
<svg
   xmlns:dc="http://purl.org/dc/elements/1.1/"
   xmlns:cc="http://creativecommons.org/ns#"
   xmlns:rdf="http://www.w3.org/1999/02/22-rdf-syntax-ns#"
   xmlns:svg="http://www.w3.org/2000/svg"
   xmlns="http://www.w3.org/2000/svg"
   xmlns:sodipodi="http://sodipodi.sourceforge.net/DTD/sodipodi-0.dtd"
   xmlns:inkscape="http://www.inkscape.org/namespaces/inkscape"
   height="256"
   viewBox="0 0 128 128"
   width="256"
   version="1.1"
   id="svg6"
   sodipodi:docname="internet.svg"
   style="fill:#ffffff"
   inkscape:version="0.92.1 r15371">
  <metadata
     id="metadata12">
    <rdf:RDF>
      <cc:Work
         rdf:about="">
        <dc:format>image/svg+xml</dc:format>
        <dc:type
           rdf:resource="http://purl.org/dc/dcmitype/StillImage" />
        <dc:title />
      </cc:Work>
    </rdf:RDF>
  </metadata>
  <defs
     id="defs10" />
  <sodipodi:namedview
     pagecolor="#ffffff"
     bordercolor="#666666"
     borderopacity="1"
     objecttolerance="10"
     gridtolerance="10"
     guidetolerance="10"
     inkscape:pageopacity="0"
     inkscape:pageshadow="2"
     inkscape:window-width="1920"
     inkscape:window-height="1138"
     id="namedview8"
     showgrid="false"
     inkscape:zoom="2.4583333"
     inkscape:cx="-122.03124"
     inkscape:cy="88.335666"
     inkscape:window-x="1920"
     inkscape:window-y="0"
     inkscape:window-maximized="1"
     inkscape:current-layer="svg6" />
  <path
     d="M 63.941,5 C 31.373,5 5,31.432 5,64 5,96.568 31.373,123 63.941,123 96.568,123 123,96.568 123,64 123,31.432 96.568,5 63.941,5 Z m 40.887,35.4 H 87.423 C 85.535,33.025 82.821,25.945 79.281,19.396 90.137,23.113 99.164,30.665 104.828,40.4 Z M 64,17.036 c 4.897,7.08 8.732,14.927 11.269,23.364 H 52.731 C 55.268,31.963 59.103,24.116 64,17.036 Z M 18.334,75.8 C 17.39,72.024 16.8,68.071 16.8,64 c 0,-4.071 0.59,-8.024 1.534,-11.8 h 19.942 c -0.472,3.894 -0.826,7.788 -0.826,11.8 0,4.012 0.354,7.906 0.826,11.8 z m 4.838,11.8 h 17.405 c 1.888,7.375 4.602,14.455 8.142,21.004 C 37.863,104.887 28.836,97.394 23.172,87.6 Z M 40.577,40.4 H 23.172 C 28.836,30.606 37.863,23.113 48.719,19.396 45.179,25.945 42.465,33.025 40.577,40.4 Z M 64,110.964 C 59.103,103.884 55.268,96.037 52.731,87.6 H 75.269 C 72.732,96.037 68.897,103.884 64,110.964 Z M 77.806,75.8 H 50.194 C 49.663,71.906 49.25,68.012 49.25,64 c 0,-4.012 0.413,-7.965 0.944,-11.8 h 27.612 c 0.531,3.835 0.944,7.788 0.944,11.8 0,4.012 -0.413,7.906 -0.944,11.8 z m 1.475,32.804 c 3.54,-6.549 6.254,-13.629 8.142,-21.004 h 17.405 c -5.664,9.735 -14.691,17.287 -25.547,21.004 z M 89.724,75.8 c 0.472,-3.894 0.826,-7.788 0.826,-11.8 0,-4.012 -0.354,-7.906 -0.826,-11.8 h 19.942 c 0.944,3.776 1.534,7.729 1.534,11.8 0,4.071 -0.59,8.024 -1.534,11.8 z"
     id="path4"
     inkscape:connector-curvature="0"
     style="fill:#fafafa;fill-opacity:1;stroke-width:5.9000001" />
</svg>
