<?xml version="1.0" encoding="UTF-8" standalone="no"?>
<svg
   xmlns:dc="http://purl.org/dc/elements/1.1/"
   xmlns:cc="http://creativecommons.org/ns#"
   xmlns:rdf="http://www.w3.org/1999/02/22-rdf-syntax-ns#"
   xmlns:svg="http://www.w3.org/2000/svg"
   xmlns="http://www.w3.org/2000/svg"
   xmlns:sodipodi="http://sodipodi.sourceforge.net/DTD/sodipodi-0.dtd"
   xmlns:inkscape="http://www.inkscape.org/namespaces/inkscape"
   height="256"
   viewBox="0 0 128 128"
   width="256"
   version="1.1"
   id="svg6"
   sodipodi:docname="others.svg"
   style="fill:#ffffff"
   inkscape:version="0.92.1 r15371">
  <metadata
     id="metadata12">
    <rdf:RDF>
      <cc:Work
         rdf:about="">
        <dc:format>image/svg+xml</dc:format>
        <dc:type
           rdf:resource="http://purl.org/dc/dcmitype/StillImage" />
        <dc:title></dc:title>
      </cc:Work>
    </rdf:RDF>
  </metadata>
  <defs
     id="defs10" />
  <sodipodi:namedview
     pagecolor="#ffffff"
     bordercolor="#666666"
     borderopacity="1"
     objecttolerance="10"
     gridtolerance="10"
     guidetolerance="10"
     inkscape:pageopacity="0"
     inkscape:pageshadow="2"
     inkscape:window-width="1920"
     inkscape:window-height="1138"
     id="namedview8"
     showgrid="false"
     inkscape:zoom="4.9166667"
     inkscape:cx="-0.61016949"
     inkscape:cy="24"
     inkscape:window-x="1920"
     inkscape:window-y="0"
     inkscape:window-maximized="1"
     inkscape:current-layer="svg6" />
  <path
     d="M 115.25,17.875 H 38.375 c -3.53625,0 -6.30375,1.79375 -8.14875,4.51 L 2.5,64 30.22625,105.56375 c 1.845,2.71625 4.97125,4.56125 8.5075,4.56125 H 115.25 c 5.6375,0 10.25,-4.6125 10.25,-10.25 v -71.75 c 0,-5.6375 -4.6125,-10.25 -10.25,-10.25 z M 48.625,71.6875 c -4.25375,0 -7.6875,-3.43375 -7.6875,-7.6875 0,-4.25375 3.43375,-7.6875 7.6875,-7.6875 4.25375,0 7.6875,3.43375 7.6875,7.6875 0,4.25375 -3.43375,7.6875 -7.6875,7.6875 z m 25.625,0 c -4.25375,0 -7.6875,-3.43375 -7.6875,-7.6875 0,-4.25375 3.43375,-7.6875 7.6875,-7.6875 4.25375,0 7.6875,3.43375 7.6875,7.6875 0,4.25375 -3.43375,7.6875 -7.6875,7.6875 z m 25.625,0 c -4.25375,0 -7.6875,-3.43375 -7.6875,-7.6875 0,-4.25375 3.43375,-7.6875 7.6875,-7.6875 4.25375,0 7.6875,3.43375 7.6875,7.6875 0,4.25375 -3.43375,7.6875 -7.6875,7.6875 z"
     id="path4"
     style="fill:#e4e4e4;fill-opacity:1;stroke-width:5.125"
     inkscape:connector-curvature="0" />
</svg>
