<?xml version="1.0" encoding="UTF-8" standalone="no"?>
<!-- Generator: Adobe Illustrator 16.0.0, SVG Export Plug-In . SVG Version: 6.00 Build 0)  -->

<svg
   xmlns:dc="http://purl.org/dc/elements/1.1/"
   xmlns:cc="http://creativecommons.org/ns#"
   xmlns:rdf="http://www.w3.org/1999/02/22-rdf-syntax-ns#"
   xmlns:svg="http://www.w3.org/2000/svg"
   xmlns="http://www.w3.org/2000/svg"
   xmlns:sodipodi="http://sodipodi.sourceforge.net/DTD/sodipodi-0.dtd"
   xmlns:inkscape="http://www.inkscape.org/namespaces/inkscape"
   version="1.1"
   id="Layer_1"
   x="0px"
   y="0px"
   width="500"
   height="100"
   viewBox="0 0 500 100"
   enable-background="new 0 0 512 512"
   xml:space="preserve"
   sodipodi:docname="rating-stars-light.svg"
   inkscape:version="0.92.1 r15371"><metadata
     id="metadata9"><rdf:RDF><cc:Work
         rdf:about=""><dc:format>image/svg+xml</dc:format><dc:type
           rdf:resource="http://purl.org/dc/dcmitype/StillImage" /><dc:title /></cc:Work></rdf:RDF></metadata><defs
     id="defs7" /><sodipodi:namedview
     pagecolor="#ffffff"
     bordercolor="#666666"
     borderopacity="1"
     objecttolerance="10"
     gridtolerance="10"
     guidetolerance="10"
     inkscape:pageopacity="0"
     inkscape:pageshadow="2"
     inkscape:window-width="1920"
     inkscape:window-height="1172"
     id="namedview5"
     showgrid="false"
     inkscape:zoom="0.65186408"
     inkscape:cx="-117.24092"
     inkscape:cy="96.867694"
     inkscape:window-x="0"
     inkscape:window-y="0"
     inkscape:window-maximized="1"
     inkscape:current-layer="Layer_1" /><polygon
     stroke-miterlimit="10"
     points="330.27,173.919 489.16,197.007 374.185,309.08 401.33,467.31 259.216,392.612 117.104,467.31 144.25,309.08 29.274,197.007 188.165,173.919 259.216,29.942 "
     id="polygon2-3"
     transform="matrix(1.0050314,0,0,1.0050312,741.22138,-337.03274)"
     style="fill:none;stroke:#a9a9a9;stroke-width:24.87484741;stroke-linecap:round;stroke-linejoin:round;stroke-miterlimit:10;stroke-dasharray:none;stroke-opacity:1" /><rect
     style="opacity:1;fill:#000000;fill-opacity:1;stroke:#a9a9a9;stroke-width:0;stroke-linecap:round;stroke-linejoin:bevel;stroke-miterlimit:10;stroke-dasharray:none;stroke-opacity:1;paint-order:markers stroke fill"
     id="rect4482-6"
     width="512"
     height="512"
     x="630.68793"
     y="-895.41797" /><path
     style="opacity:1;fill:#f0f0f0;fill-opacity:1;stroke:#a9a9a9;stroke-width:0;stroke-linecap:round;stroke-linejoin:bevel;stroke-miterlimit:10;stroke-dasharray:none;stroke-opacity:1;paint-order:markers stroke fill"
     d="M 0 0 L 0 100 L 95 100 L 100 100 L 105 100 L 200 100 L 205 100 L 300 100 L 305 100 L 400 100 L 405 100 L 500 100 L 500 0 L 405 0 L 400 0 L 305 0 L 300 0 L 205 0 L 200 0 L 105 0 L 100 0 L 95 0 L 0 0 z M 50 6.5488281 L 63.947266 34.810547 L 95 39.324219 L 95 39.476562 L 72.568359 61.341797 L 77.896484 92.402344 L 50 77.740234 L 22.103516 92.402344 L 27.433594 61.341797 L 4.8632812 39.34375 L 36.052734 34.810547 L 50 6.5488281 z M 150 6.5488281 L 163.94727 34.810547 L 195 39.324219 L 195 39.476562 L 172.56836 61.341797 L 177.89648 92.402344 L 150 77.740234 L 122.10352 92.402344 L 127.43359 61.341797 L 105 39.476562 L 105 39.324219 L 136.05273 34.810547 L 150 6.5488281 z M 250 6.5488281 L 263.94727 34.810547 L 295 39.324219 L 295 39.476562 L 272.56836 61.341797 L 277.89648 92.402344 L 250 77.740234 L 222.10352 92.402344 L 227.43359 61.341797 L 205 39.476562 L 205 39.324219 L 236.05273 34.810547 L 250 6.5488281 z M 350 6.5488281 L 363.94727 34.810547 L 395 39.324219 L 395 39.476562 L 372.56836 61.341797 L 377.89648 92.402344 L 350 77.740234 L 322.10352 92.402344 L 327.43359 61.341797 L 305 39.476562 L 305 39.324219 L 336.05273 34.810547 L 350 6.5488281 z M 450 6.5488281 L 463.94727 34.810547 L 495.13672 39.34375 L 472.56836 61.341797 L 477.89648 92.402344 L 450 77.740234 L 422.10352 92.402344 L 427.43359 61.341797 L 405 39.476562 L 405 39.324219 L 436.05273 34.810547 L 450 6.5488281 z "
     id="rect4482" /></svg>