<?xml version="1.0" encoding="UTF-8" standalone="no"?>
<svg
   xmlns:dc="http://purl.org/dc/elements/1.1/"
   xmlns:cc="http://creativecommons.org/ns#"
   xmlns:rdf="http://www.w3.org/1999/02/22-rdf-syntax-ns#"
   xmlns:svg="http://www.w3.org/2000/svg"
   xmlns="http://www.w3.org/2000/svg"
   xmlns:sodipodi="http://sodipodi.sourceforge.net/DTD/sodipodi-0.dtd"
   xmlns:inkscape="http://www.inkscape.org/namespaces/inkscape"
   fill="#FFFFFF"
   height="48"
   viewBox="0 0 24 24"
   width="48"
   version="1.1"
   id="svg6"
   sodipodi:docname="reading.svg"
   inkscape:version="0.92.1 r15371">
  <metadata
     id="metadata12">
    <rdf:RDF>
      <cc:Work
         rdf:about="">
        <dc:format>image/svg+xml</dc:format>
        <dc:type
           rdf:resource="http://purl.org/dc/dcmitype/StillImage" />
        <dc:title></dc:title>
      </cc:Work>
    </rdf:RDF>
  </metadata>
  <defs
     id="defs10" />
  <sodipodi:namedview
     pagecolor="#ffffff"
     bordercolor="#666666"
     borderopacity="1"
     objecttolerance="10"
     gridtolerance="10"
     guidetolerance="10"
     inkscape:pageopacity="0"
     inkscape:pageshadow="2"
     inkscape:window-width="1920"
     inkscape:window-height="1138"
     id="namedview8"
     showgrid="false"
     inkscape:zoom="6.9532167"
     inkscape:cx="0.35365534"
     inkscape:cy="24.517206"
     inkscape:window-x="1920"
     inkscape:window-y="0"
     inkscape:window-maximized="1"
     inkscape:current-layer="svg6" />
  <path
     style="opacity:1;fill:#ffffff;fill-opacity:1;stroke:none;stroke-width:0.01529878;stroke-linecap:round;stroke-linejoin:round;stroke-miterlimit:4;stroke-dasharray:none;stroke-opacity:1;paint-order:normal"
     d="M 11.784967,20.869942 C 11.537845,20.648946 10.652402,20.188793 10.10136,19.994995 8.7028332,19.503145 6.9016435,19.319409 5.4688244,19.522445 4.3995478,19.673967 3.1071189,20.051103 2.2455916,20.463002 1.7188541,20.714836 1.4710213,20.692339 1.3221633,20.379173 1.2587379,20.245738 1.25,19.27859 1.25,12.388449 V 4.5495332 L 1.6441654,4.2826195 C 2.1379533,3.9482455 2.2533451,3.8856663 2.7769602,3.6682838 3.874696,3.2125509 5.0890242,3.0005915 6.6010937,3.0007862 8.7314568,3.0010609 10.37868,3.4382061 11.675433,4.3474304 L 11.9959,4.5721277 12.272654,4.371257 c 0.896046,-0.6503581 2.15478,-1.1045263 3.621187,-1.3065726 0.703096,-0.096875 2.352877,-0.082543 3.097951,0.02691 1.402306,0.2060047 2.637094,0.6620851 3.483417,1.2866325 L 22.74993,4.580959 v 7.744326 c 0,8.350179 0.01104,7.981307 -0.244472,8.175997 -0.170521,0.129937 -0.395223,0.102067 -0.751746,-0.09326 -1.068045,-0.585134 -2.749587,-0.965474 -4.268525,-0.965474 -1.626883,0 -3.567788,0.503408 -5.021089,1.302308 -0.257142,0.141353 -0.482892,0.256167 -0.501666,0.255137 -0.01878,-0.001 -0.09863,-0.05955 -0.177466,-0.130048 z m 0.703834,-2.210692 c 0.880291,-0.491919 2.001754,-0.881657 3.309487,-1.150132 0.492572,-0.10112 0.731486,-0.117773 1.696105,-0.118182 1.214952,-5.21e-4 1.785098,0.06669 2.699436,0.31823 0.262777,0.07229 0.510027,0.135183 0.549444,0.139759 0.06334,0.0073 0.07166,-0.704074 0.07166,-6.124657 V 5.5912922 l -0.597219,-0.16448 C 19.347245,5.1870765 18.529713,5.0837011 17.49439,5.0824519 15.846826,5.0804819 14.064423,5.5295049 12.585239,6.3192134 L 11.952186,6.657189 v 6.132795 c 0,3.373036 0.01464,6.132793 0.03251,6.132793 0.01788,0 0.244726,-0.118587 0.504096,-0.263527 z"
     id="path4513"
     inkscape:connector-curvature="0" />
</svg>
