<?xml version="1.0" encoding="UTF-8" standalone="no"?>
<svg
   xmlns:dc="http://purl.org/dc/elements/1.1/"
   xmlns:cc="http://creativecommons.org/ns#"
   xmlns:rdf="http://www.w3.org/1999/02/22-rdf-syntax-ns#"
   xmlns:svg="http://www.w3.org/2000/svg"
   xmlns="http://www.w3.org/2000/svg"
   xmlns:sodipodi="http://sodipodi.sourceforge.net/DTD/sodipodi-0.dtd"
   xmlns:inkscape="http://www.inkscape.org/namespaces/inkscape"
   height="256"
   viewBox="0 0 128 128"
   width="256"
   version="1.1"
   id="svg6"
   sodipodi:docname="reading.svg"
   inkscape:version="0.92.1 r15371"
   style="fill:#ffffff">
  <metadata
     id="metadata12">
    <rdf:RDF>
      <cc:Work
         rdf:about="">
        <dc:format>image/svg+xml</dc:format>
        <dc:type
           rdf:resource="http://purl.org/dc/dcmitype/StillImage" />
        <dc:title></dc:title>
      </cc:Work>
    </rdf:RDF>
  </metadata>
  <defs
     id="defs10" />
  <sodipodi:namedview
     pagecolor="#ffffff"
     bordercolor="#666666"
     borderopacity="1"
     objecttolerance="10"
     gridtolerance="10"
     guidetolerance="10"
     inkscape:pageopacity="0"
     inkscape:pageshadow="2"
     inkscape:window-width="1920"
     inkscape:window-height="1138"
     id="namedview8"
     showgrid="false"
     inkscape:zoom="2.4583333"
     inkscape:cx="43.174857"
     inkscape:cy="109.16685"
     inkscape:window-x="1920"
     inkscape:window-y="0"
     inkscape:window-maximized="1"
     inkscape:current-layer="svg6" />
  <path
     style="opacity:1;fill:#fafafa;fill-opacity:1;stroke:none;stroke-width:0.0839654;stroke-linecap:round;stroke-linejoin:round;stroke-miterlimit:4;stroke-dasharray:none;stroke-opacity:1;paint-order:normal"
     d="m 62.819819,112.68647 c -1.356297,-1.21287 -6.215938,-3.7384 -9.240261,-4.802 -7.675636,-2.69946 -17.561235,-3.70789 -25.42508,-2.59354 -5.868588,0.83161 -12.961918,2.90144 -17.690301,5.1621 -2.8909312,1.38219 -4.2511299,1.25871 -5.068118,-0.45992 C 5.0479568,109.26063 5,103.95254 5,66.136869 V 23.113933 l 2.1633264,-1.464902 c 2.7100917,-1.835148 3.3434046,-2.178611 6.2171996,-3.371729 6.024782,-2.501217 12.689467,-3.664534 20.988268,-3.663436 11.692225,0.0015 20.732799,2.400726 27.849862,7.390866 l 1.758842,1.233239 1.518929,-1.102451 c 4.917834,-3.569419 11.826235,-6.062075 19.874422,-7.171001 3.858852,-0.531824 12.913464,-0.452792 17.002711,0.147637 7.69637,1.13066 14.47335,3.633798 19.11829,7.061563 l 1.50777,1.112659 v 42.503791 c 0,45.828871 0.0606,43.804371 -1.34176,44.872901 -0.93588,0.71316 -2.16913,0.5602 -4.12586,-0.51206 -5.86183,-3.21141 -15.09076,-5.29887 -23.427252,-5.29887 -8.928939,0 -19.581348,2.76291 -27.557605,7.14757 -1.411291,0.77578 -2.650291,1.4059 -2.75333,1.40025 -0.103071,-0.005 -0.541318,-0.32711 -0.973999,-0.71371 z m 3.862903,-12.1331 c 4.831365,-2.699838 10.986371,-4.838878 18.163696,-6.312338 2.703419,-0.55498 4.014668,-0.64637 9.308856,-0.64862 6.668106,-0.003 9.797286,0.36608 14.815506,1.74657 1.44222,0.39681 2.79922,0.74192 3.01556,0.76705 0.34763,0.0384 0.39329,-3.86425 0.39329,-33.614432 V 28.831503 l -3.27776,-0.902728 c -4.77745,-1.315728 -9.264375,-1.883117 -14.946613,-1.889977 -9.042444,-0.01098 -18.824935,2.453578 -26.943247,6.787804 l -3.474431,1.854961 v 33.659054 c 0,18.51251 0.08035,33.659103 0.178427,33.659103 0.09813,0 1.343148,-0.65086 2.766667,-1.44635 z"
     id="path4513"
     inkscape:connector-curvature="0" />
</svg>
