<?xml version="1.0" encoding="UTF-8" standalone="no"?>
<!-- Created with Inkscape (http://www.inkscape.org/) -->

<svg
   xmlns:dc="http://purl.org/dc/elements/1.1/"
   xmlns:cc="http://creativecommons.org/ns#"
   xmlns:rdf="http://www.w3.org/1999/02/22-rdf-syntax-ns#"
   xmlns:svg="http://www.w3.org/2000/svg"
   xmlns="http://www.w3.org/2000/svg"
   xmlns:sodipodi="http://sodipodi.sourceforge.net/DTD/sodipodi-0.dtd"
   xmlns:inkscape="http://www.inkscape.org/namespaces/inkscape"
   version="1.1"
   id="svg2"
   width="32"
   height="32"
   viewBox="0 0 32 32"
   sodipodi:docname="search.svg"
   inkscape:version="0.92.1 r15371">
  <metadata
     id="metadata8">
    <rdf:RDF>
      <cc:Work
         rdf:about="">
        <dc:format>image/svg+xml</dc:format>
        <dc:type
           rdf:resource="http://purl.org/dc/dcmitype/StillImage" />
        <dc:title />
      </cc:Work>
    </rdf:RDF>
  </metadata>
  <defs
     id="defs6" />
  <sodipodi:namedview
     pagecolor="#ffffff"
     bordercolor="#666666"
     borderopacity="1"
     objecttolerance="10"
     gridtolerance="10"
     guidetolerance="10"
     inkscape:pageopacity="0"
     inkscape:pageshadow="2"
     inkscape:window-width="1920"
     inkscape:window-height="1172"
     id="namedview4"
     showgrid="false"
     inkscape:zoom="20.85965"
     inkscape:cx="9.5277046"
     inkscape:cy="16.459863"
     inkscape:window-x="0"
     inkscape:window-y="0"
     inkscape:window-maximized="1"
     inkscape:current-layer="svg2" />
  <path
     style="opacity:1;fill:#2c2c2c;fill-opacity:1;stroke:none;stroke-width:0.01289343;stroke-linecap:round;stroke-linejoin:round;stroke-miterlimit:4;stroke-dasharray:none;stroke-opacity:1;paint-order:normal"
     d="m 23.474916,26.523565 c -3.458488,-3.46176 -3.472324,-3.47626 -3.541429,-3.718381 -0.09917,-0.347373 -0.0049,-0.775103 0.21018,-0.953637 0.06135,-0.05066 -0.0607,-0.186745 -1.120104,-1.246594 -0.653924,-0.654304 -1.204785,-1.189557 -1.224139,-1.189557 -0.01936,0 -0.18957,0.111627 -0.378258,0.248148 -0.397147,0.287192 -1.006234,0.659371 -1.30903,0.799822 -0.115496,0.05328 -0.344278,0.159668 -0.508403,0.235833 -0.361994,0.167878 -0.908214,0.354098 -1.444512,0.492453 -0.38022,0.09809 -0.520482,0.126913 -1.196947,0.246227 -0.392992,0.069 -2.085176,0.069 -2.49889,0 C 9.4563472,21.268167 8.8927073,21.120727 8.1534857,20.833623 6.9292778,20.358115 5.7818599,19.612884 4.8760247,18.704841 4.5891306,18.4173 4.4739488,18.291698 4.1123546,17.87244 3.7810181,17.488294 3.1664116,16.50365 2.8871466,15.909613 2.4970251,15.079745 2.1988224,14.093353 2.0554981,13.158757 1.9811025,12.673554 1.9816379,10.768288 2.0562894,10.344837 2.2744814,9.10724 2.5396291,8.286543 3.0372306,7.30858 3.4895397,6.4196222 4.0037006,5.7076261 4.7230563,4.9740906 c 1.7453365,-1.77975 3.789323,-2.7329417 6.3218667,-2.9481433 1.223092,-0.1039411 2.767171,0.1093826 3.984559,0.5504682 0.868144,0.3145483 2.016033,0.9561265 2.753763,1.5391396 0.293799,0.2321729 1.079719,0.9956241 1.375863,1.3365246 0.381261,0.4388756 0.796303,1.0432971 1.095882,1.5959228 0.567497,1.0468605 0.934728,2.1348785 1.112755,3.2968345 0.10347,0.675355 0.103143,2.190187 -6.02e-4,2.834883 -0.182109,1.131735 -0.502977,2.118388 -1.002425,3.082419 -0.194334,0.375061 -0.782325,1.288258 -1.018092,1.58104 l -0.102798,0.127699 1.193584,1.193051 c 1.129614,1.129114 1.197671,1.189382 1.269788,1.124048 0.258768,-0.234173 0.731252,-0.303089 1.061648,-0.154951 0.146404,0.06551 0.976852,0.872231 3.68534,3.579327 3.084591,3.083031 3.496342,3.509452 3.496342,3.620904 0,0.109706 -0.167499,0.29383 -1.270695,1.396566 L 27.409138,30 h -0.23108 -0.231081 z M 13.214262,19.359844 c 1.584316,-0.329554 2.915242,-1.05059 4.032614,-2.184857 1.06324,-1.07924 1.744354,-2.361995 2.066194,-3.891326 0.101658,-0.48302 0.110481,-0.605478 0.110481,-1.532912 0,-0.928569 -0.0087,-1.049629 -0.111064,-1.536668 C 19.156559,9.47182 18.952991,8.895428 18.609227,8.222903 17.545789,6.1423616 15.589827,4.6485805 13.29826,4.1668793 10.675126,3.6154852 7.9459879,4.4714352 6.0933375,6.4265836 4.9957017,7.5849496 4.3345869,8.92399 4.0556911,10.553768 c -0.103498,0.604867 -0.094091,1.849015 0.018896,2.499389 0.2977563,1.713891 1.0391797,3.095259 2.3214948,4.325344 0.586747,0.562854 1.1056941,0.924988 1.8623988,1.299612 0.9328708,0.461796 1.5140672,0.634129 2.6878823,0.797027 0.0693,0.0096 0.494528,0.01136 0.944958,0 0.672426,-0.01136 0.909141,-0.03319 1.322941,-0.11879 z"
     id="path4491"
     inkscape:connector-curvature="0" />
</svg>
