<?xml version="1.0" encoding="UTF-8" standalone="no"?>
<!-- Created with Inkscape (http://www.inkscape.org/) -->

<svg
   xmlns:dc="http://purl.org/dc/elements/1.1/"
   xmlns:cc="http://creativecommons.org/ns#"
   xmlns:rdf="http://www.w3.org/1999/02/22-rdf-syntax-ns#"
   xmlns:svg="http://www.w3.org/2000/svg"
   xmlns="http://www.w3.org/2000/svg"
   xmlns:sodipodi="http://sodipodi.sourceforge.net/DTD/sodipodi-0.dtd"
   xmlns:inkscape="http://www.inkscape.org/namespaces/inkscape"
   version="1.1"
   id="svg2"
   width="128"
   height="128"
   viewBox="0 0 128 128"
   sodipodi:docname="search.svg"
   inkscape:version="0.92.1 r15371">
  <metadata
     id="metadata8">
    <rdf:RDF>
      <cc:Work
         rdf:about="">
        <dc:format>image/svg+xml</dc:format>
        <dc:type
           rdf:resource="http://purl.org/dc/dcmitype/StillImage" />
        <dc:title></dc:title>
      </cc:Work>
    </rdf:RDF>
  </metadata>
  <defs
     id="defs6" />
  <sodipodi:namedview
     pagecolor="#ffffff"
     bordercolor="#666666"
     borderopacity="1"
     objecttolerance="10"
     gridtolerance="10"
     guidetolerance="10"
     inkscape:pageopacity="0"
     inkscape:pageshadow="2"
     inkscape:window-width="1920"
     inkscape:window-height="1024"
     id="namedview4"
     showgrid="false"
     inkscape:zoom="2.6074563"
     inkscape:cx="17.546664"
     inkscape:cy="22.252691"
     inkscape:window-x="0"
     inkscape:window-y="0"
     inkscape:window-maximized="1"
     inkscape:current-layer="svg2" />
  <path
     style="opacity:1;fill:#fafafa;fill-opacity:1;stroke:none;stroke-width:0.05709948;stroke-linecap:round;stroke-linejoin:round;stroke-miterlimit:4;stroke-dasharray:none;stroke-opacity:1;paint-order:normal"
     d="M 97.103199,110.60438 C 81.787038,95.273686 81.725764,95.209472 81.419728,94.137226 c -0.439182,-1.538353 -0.0217,-3.432586 0.930797,-4.223219 0.271693,-0.224528 -0.268814,-0.827035 -4.960461,-5.520657 -2.895949,-2.897614 -5.335476,-5.268007 -5.421187,-5.268007 -0.08574,0 -0.839524,0.494317 -1.675142,1.098906 -1.758794,1.271886 -4.456179,2.920067 -5.797133,3.542104 -0.511482,0.236043 -1.52466,0.707066 -2.251499,1.04439 -1.603116,0.743469 -4.02209,1.568157 -6.397124,2.18085 -1.683832,0.434443 -2.304992,0.562074 -5.300766,1.090447 -1.740393,0.305572 -9.23435,0.305572 -11.066512,0 C 35.020966,87.330467 32.524847,86.677519 29.251151,85.406032 23.829659,83.300202 18.748237,79.999898 14.736681,75.978578 13.46615,74.705186 12.956059,74.148958 11.354713,72.292235 9.8873661,70.590999 7.1655374,66.230451 5.9287924,63.599702 4.2011115,59.924608 2.8804995,55.556265 2.2457776,51.417366 1.9163096,49.268579 1.9186833,40.830999 2.249282,38.955721 3.2155608,33.474921 4.3897863,29.840392 6.5934501,25.509427 8.5965332,21.572604 10.873531,18.419505 14.05925,15.170971 21.788597,7.2892255 30.840537,3.0679466 42.056088,2.1149092 c 5.41655,-0.4603101 12.254614,0.4844104 17.645904,2.4377868 3.844637,1.3930027 8.928146,4.2342767 12.195236,6.816214 1.301109,1.028181 4.781612,4.409174 6.093107,5.918874 1.688442,1.943611 3.526485,4.620328 4.853192,7.067645 2.513201,4.636095 4.139509,9.454469 4.927915,14.600292 0.458224,2.990835 0.456776,9.699368 -0.0027,12.554468 -0.806483,5.011947 -2.22747,9.381442 -4.439311,13.650717 -0.860622,1.66098 -3.464582,5.705152 -4.508693,7.001749 l -0.455248,0.565528 5.285872,5.283507 c 5.002576,5.000345 5.303971,5.267255 5.623346,4.977936 1.145973,-1.037083 3.238402,-1.342256 4.701584,-0.686207 0.648361,0.290071 4.326059,3.862733 16.320798,15.851274 13.66033,13.653417 15.4838,15.541847 15.4838,16.035457 0,0.48582 -0.74178,1.30125 -5.62737,6.18477 L 114.52618,126 h -1.02335 -1.02336 z M 51.66316,78.879292 c 7.016257,-1.459436 12.910358,-4.652613 17.858719,-9.675764 4.708634,-4.779492 7.724996,-10.460286 9.150288,-17.233033 0.4502,-2.139089 0.489273,-2.681411 0.489273,-6.788601 0,-4.112239 -0.03853,-4.648362 -0.491855,-6.805253 C 77.979047,35.089489 77.077531,32.536905 75.555148,29.558558 70.845637,20.344738 62.183519,13.729427 52.035151,11.596184 40.418415,9.1542917 28.332232,12.94495 20.127638,21.603427 c -4.860959,5.129924 -7.788753,11.059958 -9.023863,18.277555 -0.458348,2.67871 -0.416689,8.188473 0.08368,11.068727 1.318635,7.590084 4.602082,13.70758 10.280906,19.155077 2.598451,2.492666 4.896645,4.096384 8.247766,5.755416 4.131285,2.045114 6.705155,2.80829 11.903479,3.529704 0.3069,0.04429 2.190052,0.05049 4.184814,0 2.977886,-0.05049 4.026195,-0.147028 5.858738,-0.52607 z"
     id="path4491"
     inkscape:connector-curvature="0" />
</svg>
