<?xml version="1.0" encoding="UTF-8" standalone="no"?>
<svg
   xmlns:dc="http://purl.org/dc/elements/1.1/"
   xmlns:cc="http://creativecommons.org/ns#"
   xmlns:rdf="http://www.w3.org/1999/02/22-rdf-syntax-ns#"
   xmlns:svg="http://www.w3.org/2000/svg"
   xmlns="http://www.w3.org/2000/svg"
   xmlns:sodipodi="http://sodipodi.sourceforge.net/DTD/sodipodi-0.dtd"
   xmlns:inkscape="http://www.inkscape.org/namespaces/inkscape"
   height="256"
   viewBox="0 0 128 128"
   width="256"
   version="1.1"
   id="svg6"
   sodipodi:docname="settings.svg"
   style="fill:#ffffff"
   inkscape:version="0.92.1 r15371">
  <metadata
     id="metadata12">
    <rdf:RDF>
      <cc:Work
         rdf:about="">
        <dc:format>image/svg+xml</dc:format>
        <dc:type
           rdf:resource="http://purl.org/dc/dcmitype/StillImage" />
        <dc:title></dc:title>
      </cc:Work>
    </rdf:RDF>
  </metadata>
  <defs
     id="defs10" />
  <sodipodi:namedview
     pagecolor="#ffffff"
     bordercolor="#666666"
     borderopacity="1"
     objecttolerance="10"
     gridtolerance="10"
     guidetolerance="10"
     inkscape:pageopacity="0"
     inkscape:pageshadow="2"
     inkscape:window-width="1920"
     inkscape:window-height="1138"
     id="namedview8"
     showgrid="false"
     inkscape:zoom="0.86915209"
     inkscape:cx="30.81124"
     inkscape:cy="-70.232239"
     inkscape:window-x="1920"
     inkscape:window-y="0"
     inkscape:window-maximized="1"
     inkscape:current-layer="svg6" />
  <path
     d="m 107.74001,69.781984 c 0.236,-1.887965 0.41301,-3.775988 0.41301,-5.781954 0,-2.006026 -0.17701,-3.894049 -0.41301,-5.782014 l 12.449,-9.735003 c 1.121,-0.885012 1.416,-2.478031 0.708,-3.775989 l -11.8,-20.414019 c -0.708,-1.298016 -2.301,-1.769963 -3.599,-1.298016 L 90.807023,28.895004 C 87.73902,26.535033 84.435021,24.588009 80.836024,23.11299 L 78.594026,7.478031 C 78.417024,6.0620133 77.178027,5 75.703027,5 h -23.59999 c -1.475,0 -2.713999,1.0620133 -2.890999,2.478031 L 46.970039,23.11299 c -3.598999,1.475019 -6.902998,3.481044 -9.970996,5.782014 L 22.30805,22.994989 c -1.356999,-0.531007 -2.890999,0 -3.598999,1.298016 L 6.909056,44.707024 c -0.7669993,1.297958 -0.4129992,2.890977 0.7079997,3.775989 l 12.4489953,9.735003 c -0.235997,1.887965 -0.412999,3.834989 -0.412999,5.782014 0,1.946965 0.177002,3.893989 0.412999,5.781954 L 7.6170557,79.516987 C 6.4960563,80.401999 6.2010562,81.995018 6.909056,83.293035 l 11.799995,20.413955 c 0.708,1.29802 2.301,1.77003 3.598999,1.29802 L 36.999043,99.105 c 3.067998,2.36003 6.371997,4.30699 9.970996,5.78201 l 2.241999,15.63502 c 0.177,1.41596 1.415999,2.47797 2.890999,2.47797 h 23.59999 c 1.475,0 2.713997,-1.06201 2.890999,-2.47797 l 2.241998,-15.63502 c 3.598997,-1.47502 6.902996,-3.48098 9.970999,-5.78201 l 14.690987,5.90001 c 1.357,0.53101 2.891,0 3.599,-1.29802 l 11.8,-20.413955 c 0.708,-1.298017 0.413,-2.891036 -0.708,-3.776048 z M 63.90303,84.649993 c -11.386996,0 -20.64999,-9.262998 -20.64999,-20.649963 0,-11.387025 9.262994,-20.650023 20.64999,-20.650023 11.386997,0 20.649992,9.262998 20.649992,20.650023 0,11.386965 -9.262995,20.649963 -20.649992,20.649963 z"
     id="path4"
     style="fill:#fafafa;fill-opacity:1;stroke-width:5.89999914"
     inkscape:connector-curvature="0" />
</svg>
