<?xml version="1.0" encoding="UTF-8" standalone="no"?>
<svg
   xmlns:dc="http://purl.org/dc/elements/1.1/"
   xmlns:cc="http://creativecommons.org/ns#"
   xmlns:rdf="http://www.w3.org/1999/02/22-rdf-syntax-ns#"
   xmlns:svg="http://www.w3.org/2000/svg"
   xmlns="http://www.w3.org/2000/svg"
   xmlns:sodipodi="http://sodipodi.sourceforge.net/DTD/sodipodi-0.dtd"
   xmlns:inkscape="http://www.inkscape.org/namespaces/inkscape"
   height="256"
   viewBox="0 0 128 128"
   width="256"
   version="1.1"
   id="svg6"
   sodipodi:docname="shopping_cart.svg"
   style="fill:#ffffff"
   inkscape:version="0.92.1 r15371">
  <metadata
     id="metadata12">
    <rdf:RDF>
      <cc:Work
         rdf:about="">
        <dc:format>image/svg+xml</dc:format>
        <dc:type
           rdf:resource="http://purl.org/dc/dcmitype/StillImage" />
        <dc:title></dc:title>
      </cc:Work>
    </rdf:RDF>
  </metadata>
  <defs
     id="defs10" />
  <sodipodi:namedview
     pagecolor="#ffffff"
     bordercolor="#666666"
     borderopacity="1"
     objecttolerance="10"
     gridtolerance="10"
     guidetolerance="10"
     inkscape:pageopacity="0"
     inkscape:pageshadow="2"
     inkscape:window-width="1920"
     inkscape:window-height="1138"
     id="namedview8"
     showgrid="false"
     inkscape:zoom="1.2291667"
     inkscape:cx="-26.704469"
     inkscape:cy="7.8796679"
     inkscape:window-x="1920"
     inkscape:window-y="0"
     inkscape:window-maximized="1"
     inkscape:current-layer="svg6" />
  <path
     d="m 38.4,99.4 c -6.49,0 -11.741,5.31 -11.741,11.8 0,6.49 5.251,11.8 11.741,11.8 6.49,0 11.8,-5.31 11.8,-11.8 0,-6.49 -5.31,-11.8 -11.8,-11.8 z M 3,5 V 16.8 H 14.8 L 36.04,61.581 28.075,76.036 C 27.131,77.688 26.6,79.635 26.6,81.7 c 0,6.49 5.31,11.8 11.8,11.8 h 70.8 V 81.7 H 40.878 c -0.826,0 -1.475,-0.649 -1.475,-1.475 L 39.58,79.517 44.89,69.9 h 43.955 c 4.425,0 8.319,-2.419 10.325,-6.077 L 120.292,25.532 C 120.764,24.706 121,23.703 121,22.7 c 0,-3.245 -2.655,-5.9 -5.9,-5.9 H 27.839 L 22.293,5 Z m 94.4,94.4 c -6.49,0 -11.741,5.31 -11.741,11.8 0,6.49 5.251,11.8 11.741,11.8 6.49,0 11.8,-5.31 11.8,-11.8 0,-6.49 -5.31,-11.8 -11.8,-11.8 z"
     id="path2"
     style="fill:#fafafa;stroke-width:5.9000001;fill-opacity:1"
     inkscape:connector-curvature="0" />
</svg>
